<svg width="320" height="198" viewBox="0 0 320 198" fill="none" xmlns="http://www.w3.org/2000/svg">
<path d="M97.8181 148.957C93.2489 153.642 90.9609 160.485 90.9609 169.479C90.9609 176.889 92.4557 182.748 95.4377 187.057C98.4197 191.366 102.453 193.517 107.531 193.517C110.513 193.517 113.178 192.725 115.532 191.142C117.945 189.558 119.975 187.275 121.628 184.299H122.012L121.728 192.092H134.489V144.114C128.016 142.596 122.363 141.831 117.542 141.831C108.96 141.831 102.394 144.207 97.8181 148.957ZM121.529 170.337C119.877 173.82 118.104 176.605 116.2 178.697C114.295 180.789 112.359 181.831 110.395 181.831C108.364 181.831 106.777 180.689 105.633 178.413C104.49 176.07 103.921 172.903 103.921 168.911C103.921 163.844 104.873 160.01 106.777 157.416C108.748 154.817 111.631 153.524 115.439 153.524C117.469 153.524 119.5 153.807 121.536 154.381V170.337H121.529Z" fill="white"/>
<path d="M197.903 122.736H194.804C191.427 122.736 188.69 125.501 188.69 128.912C188.69 132.323 191.427 135.088 194.804 135.088H197.903C201.28 135.088 204.017 132.323 204.017 128.912C204.017 125.501 201.28 122.736 197.903 122.736Z" fill="white"/>
<path d="M72.6249 181.93C68.1157 181.93 64.6245 180.729 62.1517 178.321C59.7377 175.913 58.5341 172.494 58.5341 168.06C58.5341 163.692 59.7113 160.175 62.0589 157.515C64.4721 154.856 67.6457 153.524 71.5805 153.524C73.1013 153.524 74.7209 153.747 76.4333 154.19C78.2125 154.573 79.8321 155.108 81.2869 155.807L83.8593 144.497C82.4641 143.797 80.4605 143.196 77.8617 142.689C75.3229 142.121 72.8761 141.831 70.5289 141.831C65.5169 141.831 61.1001 142.973 57.2917 145.249C53.4825 147.466 50.5341 150.634 48.4381 154.751C46.3421 158.802 45.2969 163.494 45.2969 168.812C45.2969 176.664 47.5185 182.748 51.9617 187.057C56.4717 191.366 62.7865 193.517 70.9125 193.517C75.6729 193.517 80.1169 192.692 84.2425 191.049L82.2453 180.215C78.8141 181.356 75.6133 181.93 72.6249 181.93Z" fill="white"/>
<path d="M241.347 141.831C237.79 141.831 234.682 142.623 232.017 144.207C229.352 145.79 227.005 148.258 224.968 151.616V143.164H211.83V192.098H225.252V163.685C226.456 160.769 228.202 158.367 230.49 156.466C232.777 154.566 235.184 153.616 237.724 153.616C239.879 153.616 241.598 154.342 242.868 155.8C244.137 157.192 244.772 159.159 244.772 161.693V192.098H258.194V159.601C258.194 154.025 256.7 149.69 253.718 146.582C250.743 143.415 246.616 141.831 241.347 141.831Z" fill="white"/>
<path d="M314.967 153.991C312.937 150.124 310.015 147.148 306.206 145.056C302.464 142.905 298.113 141.823 293.16 141.823C288.208 141.823 283.831 142.899 280.022 145.056C276.279 147.207 273.357 150.249 271.261 154.175C269.231 158.042 268.213 162.536 268.213 167.669C268.213 172.803 269.257 177.33 271.353 181.256C273.45 185.122 276.366 188.132 280.115 190.282C283.923 192.434 288.3 193.516 293.253 193.516C298.139 193.516 302.457 192.44 306.2 190.282C310.009 188.065 312.931 184.99 314.961 181.064C317.056 177.072 318.102 172.513 318.102 167.379C318.115 162.325 317.063 157.857 314.967 153.991ZM301.353 178.029C299.323 180.629 296.593 181.922 293.167 181.922C289.742 181.922 286.978 180.622 284.882 178.029C282.852 175.37 281.834 171.886 281.834 167.577C281.834 163.268 282.852 159.85 284.882 157.317C286.978 154.717 289.735 153.423 293.167 153.423C296.593 153.423 299.323 154.723 301.353 157.317C303.449 159.85 304.494 163.268 304.494 167.577C304.494 171.886 303.449 175.37 301.353 178.029Z" fill="white"/>
<path d="M174.341 165.777C172.562 164.761 170.34 163.718 167.676 162.643C167.358 162.517 166.247 162.101 164.343 161.408C161.93 160.584 160.217 159.858 159.199 159.224C158.18 158.591 157.678 157.641 157.678 156.374C157.678 155.041 158.28 154.032 159.489 153.332C160.759 152.633 162.439 152.289 164.535 152.289C166.565 152.289 168.727 152.64 171.008 153.332C173.355 153.966 175.452 154.824 177.29 155.899L179.101 144.589C173.897 142.755 168.945 141.831 164.25 141.831C158.286 141.831 153.426 143.223 149.684 146.014C146.001 148.74 144.163 152.574 144.163 157.509C144.163 160.611 144.864 163.118 146.259 165.018C147.654 166.918 149.208 168.344 150.927 169.294C152.64 170.178 154.861 171.129 157.592 172.144L160.164 173.094C163.021 174.111 164.958 174.962 165.97 175.662C166.988 176.295 167.491 177.212 167.491 178.42C167.491 179.937 166.763 181.112 165.302 181.937C163.841 182.696 162.035 183.078 159.873 183.078C157.585 183.078 155.145 182.669 152.54 181.844C149.935 181.019 147.555 179.944 145.399 178.611L144.163 190.013C146.193 191.089 148.639 191.946 151.496 192.58C154.418 193.214 157.433 193.53 160.541 193.53C166.697 193.53 171.65 192.231 175.392 189.637C179.135 187.037 181.013 183.144 181.013 177.951C181.013 174.85 180.345 172.316 179.015 170.35C177.673 168.311 176.119 166.787 174.341 165.777Z" fill="white"/>
<path d="M202.243 143.165H188.801V154.659H188.814V180.598V192.099H202.243V180.598V143.165Z" fill="white"/>
<path d="M217.44 47.5515C213.086 47.5515 209.231 48.4744 205.881 50.3118C202.531 52.07 199.557 54.8642 196.966 58.7118V31.1942C196.966 26.3112 192.997 22.3586 188.112 22.3586C183.226 22.3586 179.258 26.32 179.258 31.1942V113.869H196.966V74.7563C198.728 71.2477 200.987 68.445 203.752 66.3551C206.597 64.1795 209.571 63.0998 212.667 63.0998C215.511 63.0998 217.78 64.057 219.455 65.9813C221.13 67.8178 221.967 70.4124 221.967 73.755V113.869H239.675V70.9947C239.675 63.6396 237.704 57.9203 233.769 53.8196C229.835 49.641 224.392 47.5515 217.44 47.5515Z" fill="#EBBC44"/>
<path d="M66.0052 47.5523C63.0216 47.5523 60.2308 48.0138 57.64 48.9363C59.358 45.8899 59.166 43.2517 59.672 39.9352C60.2652 36.07 56.0168 32.579 53.8188 31.3257C54.2116 31.7435 55.1192 33.1014 55.6164 35.1474C56.1128 37.1933 54.8564 38.2556 54.1592 38.5338C53.976 37.6285 52.5888 34.0851 48.5328 27.1649C43.4644 18.5115 34.3134 11.3471 24.997 6.7942C17.5472 3.13796 6.07608 1.17056 1.26953 0.639526C2.68268 1.50135 6.55588 4.08681 10.7256 7.54284C15.9334 11.8694 19.5798 18.9642 21.9002 26.4419C23.7583 32.4316 22.8249 39.5611 22.1271 42.3728L35.4737 52.6628C34.3306 52.8102 29.8297 52.6628 27.832 52.0534C24.9272 51.1741 22.3014 48.8753 21.2896 48.571C22.0049 50.0249 22.0921 56.7104 26.9598 60.3233C31.8271 63.9358 36.4155 65.5465 39.905 67.7225C41.6496 69.4641 43.9704 72.5104 43.9704 80.3456C43.9704 86.1522 42.6616 99.497 42.3212 103.415C46.5868 90.7915 47.1284 80.5626 47.4596 73.3808C47.8784 64.4058 45.2524 55.7006 39.905 42.3466C35.6308 31.665 26.89 17.197 23.0604 11.2948C25.8432 14.4549 30.8852 20.5486 37.8728 31.317C44.8604 42.0944 46.1596 46.8302 48.7772 54.6646C48.8032 54.6032 48.8376 54.5955 48.8816 54.6209L52.2052 67.5657C52.8072 66.9305 53.4348 66.3559 54.0804 65.8512C56.4268 63.9269 58.9392 62.9697 61.6172 62.9697C64.8804 62.9697 67.3928 64.4757 69.1548 67.4792C70.9952 70.4904 71.92 74.7046 71.92 80.1363C71.92 86.7353 70.5412 91.7492 67.776 95.1794C65.098 98.6093 61.164 100.315 55.9652 100.315C55.4324 100.315 54.918 100.298 54.3948 100.272C53.5832 100.046 52.72 99.9238 51.83 99.9238C47.0144 99.9238 43.1072 103.432 43.1072 107.758C43.1072 111.989 46.84 115.419 51.4984 115.575C51.4196 115.697 51.8472 115.732 54.072 115.732C65.5436 115.732 74.336 112.599 80.4508 106.331C86.5668 100.063 89.6192 90.9923 89.6192 79.1265C89.6192 69.1853 87.5256 61.4548 83.3388 55.9358C79.1516 50.3555 73.376 47.5523 66.0052 47.5523Z" fill="#EBBC44"/>
<path d="M163.292 64.5428C160.614 59.4408 156.758 55.5156 151.734 52.7553C146.797 49.9174 141.056 48.4898 134.522 48.4898C127.989 48.4898 122.214 49.9089 117.19 52.7553C112.252 55.5932 108.396 59.6065 105.631 64.786C105.482 65.0741 105.352 65.3695 105.212 65.6653L105.256 65.6916C104.462 67.0153 104 68.5642 104 70.2185C104 75.1022 107.969 79.0626 112.863 79.0626C116.858 79.0626 120.242 76.4167 121.341 72.7868C121.944 71.3681 122.685 70.0702 123.601 68.9303C126.366 65.5004 130.004 63.7936 134.532 63.7936C139.05 63.7936 142.653 65.5089 145.331 68.9303C146.491 70.332 147.39 71.9419 148.061 73.7534H148.123C149.492 76.8782 152.606 79.0626 156.244 79.0626C161.138 79.0626 165.106 75.1022 165.106 70.2185C165.106 68.6341 164.688 67.1539 163.955 65.8746C163.746 65.4305 163.528 64.978 163.292 64.5428Z" fill="#DFBC8E"/>
<path d="M311.292 64.5428C308.614 59.4408 304.758 55.5156 299.734 52.7553C294.797 49.9174 289.056 48.4898 282.522 48.4898C275.989 48.4898 270.214 49.9089 265.19 52.7553C260.252 55.5932 256.396 59.6065 253.631 64.786C253.482 65.0741 253.352 65.3695 253.212 65.6653L253.256 65.6916C252.462 67.0153 252 68.5642 252 70.2185C252 75.1022 255.969 79.0626 260.863 79.0626C264.858 79.0626 268.242 76.4167 269.341 72.7868C269.944 71.3681 270.685 70.0702 271.601 68.9303C274.366 65.5004 278.004 63.7936 282.532 63.7936C287.05 63.7936 290.653 65.5089 293.331 68.9303C294.491 70.332 295.39 71.9419 296.061 73.7534H296.123C297.492 76.8782 300.606 79.0626 304.244 79.0626C309.138 79.0626 313.106 75.1022 313.106 70.2185C313.106 68.6341 312.688 67.1539 311.955 65.8746C311.746 65.4305 311.528 64.978 311.292 64.5428Z" fill="#EBBC44"/>
<path d="M156.104 86.1938C152.536 86.1938 149.466 88.3262 148.096 91.3734L148.044 91.3475C147.372 93.1667 146.482 94.8121 145.339 96.2575C142.661 99.6873 139.059 101.393 134.54 101.393C130.022 101.393 126.375 99.6785 123.61 96.2575C122.65 95.0032 121.882 93.6019 121.264 92.0696C120.085 88.5618 116.78 86.0371 112.863 86.0371C107.969 86.0371 104 89.9983 104 94.882C104 96.4397 104.409 97.9021 105.116 99.1738L105.099 99.1822C105.316 99.6352 105.526 100.088 105.753 100.523C108.518 105.624 112.366 109.594 117.311 112.432C122.336 115.27 128.111 116.697 134.645 116.697C141.091 116.697 146.788 115.278 151.725 112.432C156.75 109.507 160.605 105.45 163.283 100.27C163.502 99.8611 163.684 99.4433 163.885 99.0255L163.876 99.0166C164.513 97.7975 164.879 96.4224 164.879 94.9596C164.889 90.1195 160.954 86.1938 156.104 86.1938Z" fill="#DFBC8E"/>
<path d="M163.292 64.5428C160.614 59.4408 156.758 55.5156 151.734 52.7553C146.797 49.9174 141.056 48.4898 134.522 48.4898C127.989 48.4898 122.214 49.9089 117.19 52.7553C112.252 55.5932 108.396 59.6065 105.631 64.786C105.482 65.0741 105.352 65.3695 105.212 65.6653L105.256 65.6916C104.462 67.0153 104 68.5642 104 70.2185C104 75.1022 107.969 79.0626 112.863 79.0626C116.858 79.0626 120.242 76.4167 121.341 72.7868C121.944 71.3681 122.685 70.0702 123.601 68.9303C126.366 65.5004 130.004 63.7936 134.532 63.7936C139.05 63.7936 142.653 65.5089 145.331 68.9303C146.491 70.332 147.39 71.9419 148.061 73.7534H148.123C149.492 76.8782 152.606 79.0626 156.244 79.0626C161.138 79.0626 165.106 75.1022 165.106 70.2185C165.106 68.6341 164.688 67.1539 163.955 65.8746C163.746 65.4305 163.528 64.978 163.292 64.5428Z" fill="#EBBC44"/>
<path d="M156.104 86.1938C152.536 86.1938 149.466 88.3262 148.096 91.3734L148.044 91.3475C147.372 93.1667 146.482 94.8121 145.339 96.2575C142.661 99.6873 139.059 101.393 134.54 101.393C130.022 101.393 126.375 99.6785 123.61 96.2575C122.65 95.0032 121.882 93.6019 121.264 92.0696C120.085 88.5618 116.78 86.0371 112.863 86.0371C107.969 86.0371 104 89.9983 104 94.882C104 96.4397 104.409 97.9021 105.116 99.1738L105.099 99.1822C105.316 99.6352 105.526 100.088 105.753 100.523C108.518 105.624 112.366 109.594 117.311 112.432C122.336 115.27 128.111 116.697 134.645 116.697C141.091 116.697 146.788 115.278 151.725 112.432C156.75 109.507 160.605 105.45 163.283 100.27C163.502 99.8611 163.684 99.4433 163.885 99.0255L163.876 99.0166C164.513 97.7975 164.879 96.4224 164.879 94.9596C164.889 90.1195 160.954 86.1938 156.104 86.1938Z" fill="#EBBC44"/>
<path d="M304.104 86.1938C300.536 86.1938 297.466 88.3262 296.096 91.3734L296.044 91.3475C295.372 93.1667 294.482 94.8121 293.339 96.2575C290.661 99.6873 287.059 101.393 282.54 101.393C278.022 101.393 274.375 99.6785 271.61 96.2575C270.65 95.0032 269.882 93.6019 269.264 92.0696C268.085 88.5618 264.78 86.0371 260.863 86.0371C255.969 86.0371 252 89.9983 252 94.882C252 96.4397 252.409 97.9021 253.116 99.1738L253.099 99.1822C253.316 99.6352 253.526 100.088 253.753 100.523C256.518 105.624 260.366 109.594 265.311 112.432C270.336 115.27 276.111 116.697 282.645 116.697C289.091 116.697 294.788 115.278 299.725 112.432C304.75 109.507 308.605 105.45 311.283 100.27C311.502 99.8611 311.684 99.4433 311.885 99.0255L311.876 99.0166C312.513 97.7975 312.879 96.4224 312.879 94.9596C312.889 90.1195 308.954 86.1938 304.104 86.1938Z" fill="#EBBC44"/>
</svg>
